<?xml version="1.0" standalone="no"?>
<!DOCTYPE svg PUBLIC "-//W3C//DTD SVG 20010904//EN"
 "http://www.w3.org/TR/2001/REC-SVG-20010904/DTD/svg10.dtd">
<svg version="1.0" xmlns="http://www.w3.org/2000/svg"
 width="200.000000pt" height="224.000000pt" viewBox="0 0 200.000000 224.000000"
 preserveAspectRatio="xMidYMid meet">

<g transform="translate(0.000000,224.000000) scale(0.100000,-0.100000)"
fill="#000000" stroke="none">
<path d="M870 1985 c-467 -80 -795 -509 -741 -971 25 -218 112 -396 267 -548
300 -293 772 -332 1124 -93 260 177 415 514 379 825 -47 409 -351 727 -754
788 -108 17 -175 16 -275 -1z m271 -169 c146 -26 271 -92 380 -198 290 -286
284 -753 -12 -1034 -287 -271 -730 -264 -1007 15 -279 281 -280 732 -3 1010
175 177 402 250 642 207z"/>
<path d="M967 1672 c-15 -16 -17 -53 -17 -310 0 -289 0 -291 22 -306 19 -13
62 -16 265 -16 236 0 243 1 263 22 25 28 26 62 0 88 -19 19 -33 20 -220 20
l-200 0 0 238 c0 199 -3 241 -16 260 -19 28 -74 30 -97 4z"/>
</g>
</svg>
